<?xml version="1.0" encoding="utf-8"?>
<svg height="48" viewBox="0 -960 960 960" width="48" xmlns="http://www.w3.org/2000/svg">
  <path d="M 480.089 -410 C 499.363 -410 515.833 -416.863 529.5 -430.589 C 543.167 -444.314 550 -460.814 550 -480.089 C 550 -499.363 543.137 -515.833 529.411 -529.5 C 515.686 -543.167 499.186 -550 479.911 -550 C 460.637 -550 444.167 -543.137 430.5 -529.411 C 416.833 -515.686 410 -499.186 410 -479.911 C 410 -460.637 416.863 -444.167 430.589 -430.5 C 444.314 -416.833 460.814 -410 480.089 -410 Z M 480 0 C 372.667 -91.333 292.5 -176.167 239.5 -254.5 C 186.5 -332.833 160 -405.333 160 -472 C 160 -572 192.167 -651.667 256.5 -711 C 320.833 -770.333 395.333 -800 480 -800 C 564.667 -800 639.167 -770.333 703.5 -711 C 767.833 -651.667 800 -572 800 -472 C 800 -405.333 773.5 -332.833 720.5 -254.5 C 667.5 -176.167 587.333 -91.333 480 0 Z" style="fill: rgb(255, 255, 255);"/>
</svg>