<?xml version="1.0" encoding="utf-8"?>
<!DOCTYPE svg PUBLIC "-//W3C//DTD SVG 20010904//EN" "http://www.w3.org/TR/2001/REC-SVG-20010904/DTD/svg10.dtd">
<svg version="1.0" width="36pt" height="36pt" viewBox="0 0 36 36" preserveAspectRatio="xMidYMid meet" xmlns="http://www.w3.org/2000/svg">
  <g transform="translate(0,36)scale(.075,.075)" fill="#FFF">
    <path id="path1" d="M 240 -400 c -37 0 -66 6 -88 20 -18 11 -41 34 -52 52 -14 23 -20 51 -20 90 0 50 5 64 42 119 24 34 60 75 80 92 l 38 30 38 -30 c 20 -17 56 -58 80 -92 37 -55 42 -69 42 -119 0 -39 -6 -67 -20 -90 -11 -18 -34 -41 -52 -52 -22 -14 -51 -20 -88 -20 z " />
  </g>
</svg>