<?xml version="1.0" encoding="utf-8"?>
<svg height="48" viewBox="0 -960 960 960" width="48" xmlns="http://www.w3.org/2000/svg">
  <path d="M 390.775 -741.744 L 450.775 -741.744 L 450.775 -801.744 L 390.775 -801.744 L 390.775 -741.744 Z M 510.775 -741.744 L 510.775 -801.744 L 570.775 -801.744 L 570.775 -741.744 L 510.775 -741.744 Z M 390.775 -501.744 L 390.775 -561.744 L 450.775 -561.744 L 450.775 -501.744 L 390.775 -501.744 Z M 630.775 -621.744 L 630.775 -681.744 L 690.775 -681.744 L 690.775 -621.744 L 630.775 -621.744 Z M 630.775 -501.744 L 630.775 -561.744 L 690.775 -561.744 L 690.775 -501.744 L 630.775 -501.744 Z M 510.775 -501.744 L 510.775 -561.744 L 570.775 -561.744 L 570.775 -501.744 L 510.775 -501.744 Z M 630.775 -741.744 L 630.775 -801.744 L 690.775 -801.744 L 690.775 -741.744 L 630.775 -741.744 Z M 450.775 -681.744 L 450.775 -741.744 L 510.775 -741.744 L 510.775 -681.744 L 450.775 -681.744 Z M 270.775 -161.744 L 270.775 -801.744 L 330.775 -801.744 L 330.775 -741.744 L 390.775 -741.744 L 390.775 -681.744 L 330.775 -681.744 L 330.775 -621.744 L 390.775 -621.744 L 390.775 -561.744 L 330.775 -561.744 L 330.775 -161.744 L 270.775 -161.744 Z M 570.775 -561.744 L 570.775 -621.744 L 630.775 -621.744 L 630.775 -561.744 L 570.775 -561.744 Z M 450.775 -561.744 L 450.775 -621.744 L 510.775 -621.744 L 510.775 -561.744 L 450.775 -561.744 Z M 390.775 -621.744 L 390.775 -681.744 L 450.775 -681.744 L 450.775 -621.744 L 390.775 -621.744 Z M 510.775 -621.744 L 510.775 -681.744 L 570.775 -681.744 L 570.775 -621.744 L 510.775 -621.744 Z M 570.775 -681.744 L 570.775 -741.744 L 630.775 -741.744 L 630.775 -681.744 L 570.775 -681.744 Z" style="fill: rgb(255, 255, 255);"/>
  <path d="M 390.322 -561.788 L 450.465 -561.788 L 450.465 -501.788 L 390.322 -501.788 L 390.322 -561.788 Z M 510.608 -561.788 L 510.608 -501.788 L 570.75 -501.788 L 570.75 -561.788 L 510.608 -561.788 Z M 390.322 -801.788 L 390.322 -741.788 L 450.465 -741.788 L 450.465 -801.788 L 390.322 -801.788 Z M 630.892 -681.788 L 630.892 -621.788 L 691.034 -621.788 L 691.034 -681.788 L 630.892 -681.788 Z M 630.892 -801.788 L 630.892 -741.788 L 691.034 -741.788 L 691.034 -801.788 L 630.892 -801.788 Z M 510.608 -801.788 L 510.608 -741.788 L 570.75 -741.788 L 570.75 -801.788 L 510.608 -801.788 Z M 630.892 -561.788 L 630.892 -501.788 L 691.034 -501.788 L 691.034 -561.788 L 630.892 -561.788 Z M 450.465 -621.788 L 450.465 -561.788 L 510.608 -561.788 L 510.608 -621.788 L 450.465 -621.788 Z M 330.181 -741.788 L 330.181 -561.788 L 390.322 -561.788 L 390.322 -621.788 L 330.181 -621.788 L 330.181 -681.788 L 390.322 -681.788 L 390.322 -741.788 L 330.181 -741.788 Z M 570.75 -741.788 L 570.75 -681.788 L 630.892 -681.788 L 630.892 -741.788 L 570.75 -741.788 Z M 450.465 -741.788 L 450.465 -681.788 L 510.608 -681.788 L 510.608 -741.788 L 450.465 -741.788 Z M 390.322 -681.788 L 390.322 -621.788 L 450.465 -621.788 L 450.465 -681.788 L 390.322 -681.788 Z M 510.608 -681.788 L 510.608 -621.788 L 570.75 -621.788 L 570.75 -681.788 L 510.608 -681.788 Z M 570.75 -621.788 L 570.75 -561.788 L 630.892 -561.788 L 630.892 -621.788 L 570.75 -621.788 Z" style="transform-box: fill-box; transform-origin: 50% 50%;" transform="matrix(-1, 0, 0, -1, 0.000046, 0.000044)"/>
</svg>