<?xml version="1.0" encoding="utf-8"?>
<svg height="48" viewBox="0 -960 960 960" width="48" xmlns="http://www.w3.org/2000/svg">
  <path d="M 450 -40 L 450 -115 C 358.667 -124.333 282.667 -159.333 222 -220 C 161.333 -280.667 126.333 -356.667 117 -448 L 42 -448 L 42 -508 L 117 -508 C 126.333 -599.333 161.333 -675.333 222 -736 C 282.667 -796.667 358.667 -831.667 450 -841 L 450 -916 L 510 -916 L 510 -841 C 601.333 -831.667 677.333 -796.667 738 -736 C 798.667 -675.333 833.667 -599.333 843 -508 L 918 -508 L 918 -448 L 843 -448 C 833.667 -356.667 798.667 -280.667 738 -220 C 677.333 -159.333 601.333 -124.333 510 -115 L 510 -40 L 450 -40 Z" style="fill: rgb(255, 255, 255);"/>
</svg>